<?xml version="1.0" encoding="UTF-8"?>
<svg width="16px" height="16px" viewBox="0 0 16 16" version="1.1" xmlns="http://www.w3.org/2000/svg" xmlns:xlink="http://www.w3.org/1999/xlink">
    <title>编组</title>
    <g id="页面-1" stroke="none" stroke-width="1" fill="none" fill-rule="evenodd">
        <g id="审核" transform="translate(-1835.000000, -314.000000)">
            <g id="编组" transform="translate(1835.000000, 314.000000)">
                <path d="M13,5 L13,13 C13,13.2761424 12.8880712,13.5261424 12.7071068,13.7071068 C12.5261424,13.8880712 12.2761424,14 12,14 L12,14 L4,14 C3.72385763,14 3.47385763,13.8880712 3.29289322,13.7071068 C3.11192881,13.5261424 3,13.2761424 3,13 L3,13 L3,5 L13,5 Z" id="矩形" stroke="#8D919B" stroke-width="2"></path>
                <rect id="矩形" fill="#8D919B" x="5" y="7" width="2" height="5" rx="1"></rect>
                <rect id="矩形备份-10" fill="#8D919B" x="9" y="7" width="2" height="5" rx="1"></rect>
                <rect id="矩形" fill="#8D919B" x="1" y="4" width="14" height="2" rx="1"></rect>
                <rect id="矩形" fill="#8D919B" x="4" y="1" width="8" height="2" rx="1"></rect>
            </g>
        </g>
    </g>
</svg>